<svg xmlns="http://www.w3.org/2000/svg" viewBox="0 0 780 460" font-family="system-ui, -apple-system, 'Segoe UI', sans-serif">
  <defs>
    <marker id="arrow-down" viewBox="0 0 10 10" refX="5" refY="9" markerWidth="8" markerHeight="8" orient="auto">
      <path d="M 0 0 L 10 5 L 0 10 z" fill="#64748b"/>
    </marker>
    <marker id="arrow-right" viewBox="0 0 10 10" refX="9" refY="5" markerWidth="8" markerHeight="8" orient="0">
      <path d="M 0 0 L 10 5 L 0 10 z" fill="#64748b"/>
    </marker>
  </defs>

  <!-- Background -->
  <rect width="780" height="460" rx="12" fill="#ffffff" stroke="#e2e8f0" stroke-width="1.5"/>
  <text x="390" y="32" text-anchor="middle" font-size="15" font-weight="700" fill="#334155">Render Pipeline</text>

  <!-- Row 1: Three source boxes -->
  <!-- CUE Schema -->
  <rect x="30" y="52" width="220" height="64" rx="8" fill="#eff6ff" stroke="#3b82f6" stroke-width="1.5"/>
  <text x="140" y="78" text-anchor="middle" font-size="13" font-weight="600" fill="#1e40af">Generated CUE Schema</text>
  <text x="140" y="96" text-anchor="middle" font-size="11" fill="#64748b">#ProjectInput · #PlatformInput</text>

  <!-- Org Templates -->
  <rect x="280" y="52" width="220" height="64" rx="8" fill="#eff6ff" stroke="#3b82f6" stroke-width="1.5"/>
  <text x="390" y="78" text-anchor="middle" font-size="13" font-weight="600" fill="#1e40af">Org-Level Templates</text>
  <text x="390" y="96" text-anchor="middle" font-size="11" fill="#64748b">enabled SystemTemplates</text>

  <!-- Deployment Template -->
  <rect x="530" y="52" width="220" height="64" rx="8" fill="#f0fdf4" stroke="#22c55e" stroke-width="1.5"/>
  <text x="640" y="78" text-anchor="middle" font-size="13" font-weight="600" fill="#166534">Deployment Template</text>
  <text x="640" y="96" text-anchor="middle" font-size="11" fill="#64748b">project-level CUE</text>

  <!-- Arrows down from sources -->
  <line x1="140" y1="116" x2="140" y2="148" stroke="#64748b" stroke-width="1.5"/>
  <line x1="390" y1="116" x2="390" y2="148" stroke="#64748b" stroke-width="1.5"/>
  <line x1="640" y1="116" x2="640" y2="148" stroke="#64748b" stroke-width="1.5"/>

  <!-- Merge lines to center -->
  <line x1="140" y1="148" x2="390" y2="148" stroke="#64748b" stroke-width="1.5"/>
  <line x1="640" y1="148" x2="390" y2="148" stroke="#64748b" stroke-width="1.5"/>
  <line x1="390" y1="148" x2="390" y2="160" stroke="#64748b" stroke-width="1.5" marker-end="url(#arrow-down)"/>

  <!-- Step: Concatenate -->
  <rect x="250" y="168" width="280" height="48" rx="24" fill="#f1f5f9" stroke="#94a3b8" stroke-width="1.5"/>
  <text x="326" y="188" font-size="11" font-weight="700" fill="#64748b">1</text>
  <text x="390" y="198" text-anchor="middle" font-size="13" font-weight="600" fill="#334155">Concatenate into one CUE unit</text>

  <!-- Arrow -->
  <line x1="390" y1="216" x2="390" y2="240" stroke="#64748b" stroke-width="1.5" marker-end="url(#arrow-down)"/>

  <!-- Step: Fill inputs (with side inputs) -->
  <rect x="250" y="248" width="280" height="48" rx="24" fill="#f1f5f9" stroke="#94a3b8" stroke-width="1.5"/>
  <text x="326" y="268" font-size="11" font-weight="700" fill="#64748b">2</text>
  <text x="390" y="278" text-anchor="middle" font-size="13" font-weight="600" fill="#334155">Fill input + platform values</text>

  <!-- Side input: input -->
  <rect x="30" y="248" width="160" height="48" rx="8" fill="#faf5ff" stroke="#a855f7" stroke-width="1"/>
  <text x="110" y="268" text-anchor="middle" font-size="12" font-weight="600" fill="#6b21a8">input</text>
  <text x="110" y="284" text-anchor="middle" font-size="10" fill="#a855f7">name · image · tag · port</text>

  <!-- Side input: platform -->
  <rect x="590" y="248" width="160" height="48" rx="8" fill="#eff6ff" stroke="#3b82f6" stroke-width="1"/>
  <text x="670" y="268" text-anchor="middle" font-size="12" font-weight="600" fill="#1e40af">platform</text>
  <text x="670" y="284" text-anchor="middle" font-size="10" fill="#3b82f6">namespace · claims · org</text>

  <!-- Arrows from side inputs -->
  <line x1="190" y1="272" x2="248" y2="272" stroke="#64748b" stroke-width="1.5" marker-end="url(#arrow-right)"/>
  <line x1="590" y1="272" x2="532" y2="272" stroke="#64748b" stroke-width="1.5"/>
  <circle cx="532" cy="272" r="3" fill="#64748b"/>

  <!-- Arrow -->
  <line x1="390" y1="296" x2="390" y2="320" stroke="#64748b" stroke-width="1.5" marker-end="url(#arrow-down)"/>

  <!-- Step: Evaluate -->
  <rect x="250" y="328" width="280" height="48" rx="24" fill="#f1f5f9" stroke="#94a3b8" stroke-width="1.5"/>
  <text x="326" y="348" font-size="11" font-weight="700" fill="#64748b">3</text>
  <text x="390" y="358" text-anchor="middle" font-size="13" font-weight="600" fill="#334155">Evaluate and validate</text>

  <!-- Arrow -->
  <line x1="390" y1="376" x2="390" y2="396" stroke="#64748b" stroke-width="1.5" marker-end="url(#arrow-down)"/>

  <!-- Outputs -->
  <rect x="130" y="404" width="230" height="40" rx="8" fill="#f0fdf4" stroke="#22c55e" stroke-width="1.5"/>
  <text x="245" y="429" text-anchor="middle" font-size="13" font-weight="600" fill="#166534">projectResources</text>

  <rect x="420" y="404" width="230" height="40" rx="8" fill="#eff6ff" stroke="#3b82f6" stroke-width="1.5"/>
  <text x="535" y="429" text-anchor="middle" font-size="13" font-weight="600" fill="#1e40af">platformResources</text>

  <!-- Fork lines to outputs -->
  <line x1="390" y1="396" x2="245" y2="396" stroke="#64748b" stroke-width="1.5"/>
  <line x1="245" y1="396" x2="245" y2="402" stroke="#64748b" stroke-width="1.5" marker-end="url(#arrow-down)"/>
  <line x1="390" y1="396" x2="535" y2="396" stroke="#64748b" stroke-width="1.5"/>
  <line x1="535" y1="396" x2="535" y2="402" stroke="#64748b" stroke-width="1.5" marker-end="url(#arrow-down)"/>
</svg>
